<svg viewBox="0 0 18 29" fill="none" xmlns="http://www.w3.org/2000/svg" id="arrow-slider">
<path d="M17.1153 13.2775L3.78898 0.460138C3.48076 0.163448 3.06931 0 2.63059 0C2.19187 0 1.78043 0.163448 1.47221 0.460138L0.490814 1.40383C-0.147783 2.01875 -0.147783 3.01817 0.490815 3.63216L11.6813 14.3954L0.4784 25.1706C0.170179 25.4673 -4.84688e-08 25.8628 0 26.2845C4.85227e-08 26.7067 0.170179 27.1022 0.478401 27.3991L1.45979 28.3426C1.76826 28.6393 2.17946 28.8027 2.61818 28.8027C3.0569 28.8027 3.46834 28.6393 3.77657 28.3426L17.1153 15.5135C17.4242 15.2159 17.5939 14.8185 17.593 14.3961C17.5939 13.972 17.4242 13.5749 17.1153 13.2775Z" fill="#1A2856"/>
</svg>