<svg width="35" height="35" viewBox="0 0 35 35" fill="none" xmlns="http://www.w3.org/2000/svg">
<path d="M27.9439 2.8325L2.83218 27.9442C1.27053 29.5058 0.94692 31.7233 2.11224 32.8886C3.27612 34.0525 5.49357 33.7289 7.05522 32.1672L32.1669 7.05554C33.7286 5.49389 34.0522 3.27644 32.8883 2.11255C31.723 0.947238 29.5055 1.27085 27.9439 2.8325Z" fill="#263B58"/>
<path d="M32.1675 27.9448L7.05581 2.83315C5.49417 1.27151 3.27671 0.947897 2.1114 2.11321C0.947513 3.2771 1.27113 5.49455 2.83277 7.05619L27.9445 32.1679C29.5061 33.7295 31.7236 34.0531 32.8874 32.8893C34.0528 31.7239 33.7291 29.5065 32.1675 27.9448Z" fill="#263B58"/>
</svg>
