<svg viewBox="0 0 132 141" fill="none" xmlns="http://www.w3.org/2000/svg" id="icon-headset">
<path d="M16.0002 34.9706C44.6696 18.4183 81.2082 28.0318 97.6114 56.443C114.015 84.8541 104.071 121.304 75.4014 137.856" stroke="#BCFFF3" stroke-width="6" stroke-dasharray="12 15"/>
<path d="M18.8276 111.414V76.6553C9.26893 76.6553 1.44824 84.476 1.44824 94.0346C1.44824 103.593 9.26893 111.414 18.8276 111.414Z" fill="#00A5FF"/>
<path d="M65.1729 76.6553V111.414C74.7315 111.414 82.5522 103.593 82.5522 94.0346C82.5522 84.476 74.7315 76.6553 65.1729 76.6553Z" fill="#00A5FF"/>
<path d="M42 40.4482C18.8276 40.4482 0 59.2758 0 82.4482V88.2413C0 98.0896 7.67586 106.2 17.3793 106.924V108.517C17.3793 110.979 19.2621 112.862 21.7241 112.862C24.1862 112.862 26.069 110.979 26.069 108.517V67.9655C26.069 65.5034 24.1862 63.6207 21.7241 63.6207C19.2621 63.6207 17.3793 65.5034 17.3793 67.9655V69.5586C11.4414 69.9931 6.37241 73.1793 3.18621 77.8138C5.50345 58.4069 22.0138 43.3448 42 43.3448C61.9862 43.3448 78.4965 58.4069 80.8138 77.8138C77.6276 73.1793 72.5586 69.9931 66.6207 69.5586V67.9655C66.6207 65.5034 64.7379 63.6207 62.2759 63.6207C59.8138 63.6207 57.931 65.5034 57.931 67.9655V108.517C57.931 110.979 59.8138 112.862 62.2759 112.862C64.7379 112.862 66.6207 110.979 66.6207 108.517V106.924C72.7034 106.49 78.0621 103.014 81.1034 98.0896V105.621C81.1034 108.662 80.2345 111.124 78.4966 112.862C75.6 115.759 70.9655 115.759 70.9655 115.759H48.9517C48.3724 114.021 46.7793 112.862 44.8965 112.862H39.1034C36.6414 112.862 34.7586 114.745 34.7586 117.207C34.7586 119.669 36.6414 121.552 39.1034 121.552H44.8965C46.7793 121.552 48.3724 120.393 48.9517 118.655H70.9655C71.5448 118.655 76.7586 118.51 80.5241 114.89C82.8414 112.572 84 109.531 84 105.621V88.2413V82.4482C84 59.2758 65.1724 40.4482 42 40.4482ZM20.2759 67.9655C20.2759 67.0965 20.8552 66.5172 21.7241 66.5172C22.5931 66.5172 23.1724 67.0965 23.1724 67.9655V108.517C23.1724 109.386 22.5931 109.965 21.7241 109.965C20.8552 109.965 20.2759 109.386 20.2759 108.517V105.621V70.862V67.9655ZM17.3793 72.3103V104.172C11.8759 103.738 7.09655 100.262 4.63448 95.4827H7.24138C8.11034 95.4827 8.68966 94.9034 8.68966 94.0345C8.68966 93.1655 8.11034 92.5862 7.24138 92.5862H3.47586C3.18621 91.7172 3.04138 90.7034 2.89655 89.6896H13.0345C13.9034 89.6896 14.4828 89.1103 14.4828 88.2413C14.4828 87.3724 13.9034 86.7931 13.0345 86.7931H2.89655C3.04138 85.7793 3.18621 84.7655 3.47586 83.8965H7.24138C8.11034 83.8965 8.68966 83.3172 8.68966 82.4482C8.68966 81.5793 8.11034 81 7.24138 81H4.63448C7.09655 76.2207 11.8759 72.8896 17.3793 72.3103ZM44.8965 118.655H39.1034C38.2345 118.655 37.6552 118.076 37.6552 117.207C37.6552 116.338 38.2345 115.759 39.1034 115.759H44.8965C45.7655 115.759 46.3448 116.338 46.3448 117.207C46.3448 118.076 45.7655 118.655 44.8965 118.655ZM63.7241 108.517C63.7241 109.386 63.1448 109.965 62.2759 109.965C61.4069 109.965 60.8276 109.386 60.8276 108.517V67.9655C60.8276 67.0965 61.4069 66.5172 62.2759 66.5172C63.1448 66.5172 63.7241 67.0965 63.7241 67.9655V70.862V105.621V108.517ZM66.6207 104.172V72.3103C72.1241 72.7448 76.9034 76.2207 79.3655 81H76.7586C75.8896 81 75.3103 81.5793 75.3103 82.4482C75.3103 83.3172 75.8896 83.8965 76.7586 83.8965H80.5241C80.8138 84.7655 80.9586 85.7793 81.1034 86.7931H70.9655C70.0965 86.7931 69.5172 87.3724 69.5172 88.2413C69.5172 89.1103 70.0965 89.6896 70.9655 89.6896H81.1034C80.9586 90.7034 80.8138 91.7172 80.5241 92.5862H76.7586C75.8896 92.5862 75.3103 93.1655 75.3103 94.0345C75.3103 94.9034 75.8896 95.4827 76.7586 95.4827H79.3655C76.9034 100.262 72.1241 103.593 66.6207 104.172Z" fill="#1A2856"/>
</svg>
