<svg width="43" height="54" viewBox="0 0 43 54" fill="none" xmlns="http://www.w3.org/2000/svg">
<path d="M24.7561 15.0001C33.8619 17.44 39.2835 26.7332 36.8656 35.757C34.4477 44.7808 25.1058 50.1181 16 47.6782" stroke="#BCFFF3" stroke-width="2" stroke-dasharray="4 6"/>
<path d="M19.058 20.604V15.0849C19.058 14.4568 18.7589 14.1427 18.1606 14.1427H14.1672C13.5988 14.1427 13.3147 14.4717 13.3147 15.1298V20.5591C13.3147 21.1574 13.5988 21.4565 14.1672 21.4565H18.1606C18.7589 21.4565 19.058 21.1723 19.058 20.604ZM19.058 26.4819V25.3153C19.058 24.6871 18.7439 24.373 18.1157 24.373H14.571C13.9428 24.373 13.6287 24.6871 13.6287 25.3153V26.5268C13.6287 27.484 13.7933 28.2767 14.1223 28.9049C14.4514 29.5331 15.0048 30.1613 15.7825 30.7894L18.2952 32.8535C19.2524 33.5714 19.7311 34.394 19.7311 35.3213V35.5905C19.7311 36.5179 19.5217 37.1909 19.1029 37.6097C18.6542 37.9986 17.9512 38.193 16.994 38.193H16.1863C15.2291 38.193 14.5561 37.9986 14.1672 37.6097C13.7484 37.2208 13.539 36.5478 13.539 35.5905V34.6483C13.539 33.9902 13.2249 33.6611 12.5967 33.6611H8.78278C8.1546 33.6611 7.84051 33.9902 7.84051 34.6483V35.6803C7.84051 38.0135 8.48365 39.8083 9.76992 41.0647C11.0562 42.321 12.8809 42.9492 15.2441 42.9492H17.8914C20.2545 42.9492 22.0793 42.321 23.3655 41.0647C24.6518 39.8083 25.2949 38.0135 25.2949 35.6803V35.0521C25.2949 33.5863 24.6219 32.2702 23.2758 31.1035L20.2246 28.6357C19.4469 27.8879 19.058 27.1699 19.058 26.4819Z" fill="white"/>
<path d="M19.058 20.604V15.0849C19.058 14.4568 18.7589 14.1427 18.1606 14.1427H14.1672C13.5988 14.1427 13.3147 14.4717 13.3147 15.1298V20.5591C13.3147 21.1574 13.5988 21.4565 14.1672 21.4565H18.1606C18.7589 21.4565 19.058 21.1723 19.058 20.604ZM19.058 26.4819V25.3153C19.058 24.6871 18.7439 24.373 18.1157 24.373H14.571C13.9428 24.373 13.6287 24.6871 13.6287 25.3153V26.5268C13.6287 27.484 13.7933 28.2767 14.1223 28.9049C14.4514 29.5331 15.0048 30.1613 15.7825 30.7894L18.2952 32.8535C19.2524 33.5714 19.7311 34.394 19.7311 35.3213V35.5905C19.7311 36.5179 19.5217 37.1909 19.1029 37.6097C18.6542 37.9986 17.9512 38.193 16.994 38.193H16.1863C15.2291 38.193 14.5561 37.9986 14.1672 37.6097C13.7484 37.2208 13.539 36.5478 13.539 35.5905V34.6483C13.539 33.9902 13.2249 33.6611 12.5967 33.6611H8.78278C8.1546 33.6611 7.84051 33.9902 7.84051 34.6483V35.6803C7.84051 38.0135 8.48365 39.8083 9.76992 41.0647C11.0562 42.321 12.8809 42.9492 15.2441 42.9492H17.8914C20.2545 42.9492 22.0793 42.321 23.3655 41.0647C24.6518 39.8083 25.2949 38.0135 25.2949 35.6803V35.0521C25.2949 33.5863 24.6219 32.2702 23.2758 31.1035L20.2246 28.6357C19.4469 27.8879 19.058 27.1699 19.058 26.4819Z" fill="white"/>
</svg>
