<svg viewBox="0 0 135 141" fill="none" xmlns="http://www.w3.org/2000/svg" id="icon-man-w-bowtie">
<path d="M18.7395 34.7382C47.4089 18.1859 83.9474 27.7994 100.351 56.2105C116.754 84.6217 106.81 121.072 78.1406 137.624" stroke="#BCFFF3" stroke-width="6" stroke-dasharray="12 15"/>
<g clip-path="url(#clip0)">
<path d="M39.5315 54.7334H33.3246C29.8968 54.7334 27.1177 57.5125 27.1177 60.9403V67.1472L33.3246 60.9403C33.3246 60.9403 33.4534 67.1472 39.5315 67.1472C45.6096 67.1472 45.7384 60.9403 45.7384 60.9403C45.7384 60.9403 45.8672 54.7334 39.5315 54.7334Z" fill="#00A5FF"/>
<path d="M45.7383 54.7333V60.9402C45.7383 60.9402 45.8345 67.1471 51.9452 67.1471C58.2483 67.1471 58.1521 60.9402 58.1521 60.9402L64.359 67.1471V54.7333C64.359 48.5264 58.1521 48.5264 58.1521 48.5264C58.1521 48.5264 58.0543 48.5264 51.9452 48.5264C45.8345 48.5264 45.7383 54.7333 45.7383 54.7333Z" fill="#00A5FF"/>
<path d="M33.3247 129.217L45.7385 123.01L33.3247 116.803V129.217Z" fill="#00A5FF"/>
<path d="M58.1521 129.217V116.803L45.7383 123.01L58.1521 129.217Z" fill="#00A5FF"/>
<path d="M51.9362 56.285C51.9393 56.285 51.9424 56.285 51.9455 56.285C52.7959 56.285 53.4879 55.5944 53.4972 54.7441C53.5066 53.9651 53.7719 50.0781 58.1524 50.0781C59.0105 50.0781 59.7041 49.3844 59.7041 48.5263C59.7041 47.6682 59.0105 46.9746 58.1524 46.9746C52.0153 46.9746 50.3938 52.0503 50.3938 54.7348C50.3938 55.5882 51.0828 56.285 51.9362 56.285Z" fill="#322153"/>
<path d="M20.911 109.043C20.6022 109.043 20.2981 109.062 20.0079 109.096C17.7129 109.362 15.75 110.71 14.6219 112.796C13.4317 114.996 13.3851 117.637 14.4977 119.861L17.8075 126.479C19.1327 129.124 21.7893 130.768 24.7469 130.768H66.7319C69.6879 130.768 72.346 129.124 73.6712 126.479L76.981 119.859C78.0936 117.635 78.047 114.994 76.8569 112.794C75.7288 110.708 73.7658 109.36 71.4786 109.095C71.1791 109.062 70.875 109.043 70.5662 109.043H58.7948L53.9348 104.183C60.9812 101.033 65.911 93.9715 65.911 85.7676V80.9433C68.6172 80.3769 72.1179 78.2634 72.1179 73.3553C72.1179 68.4472 68.6172 66.4114 65.911 65.8046V60.94V48.5262C65.911 42.3891 60.8353 40.7676 58.1524 40.7676H51.9455C46.0334 40.7676 44.3079 45.6074 44.1962 48.3431C42.9408 47.4478 41.386 46.9745 39.5317 46.9745H33.3248C29.0467 46.9745 25.5662 50.455 25.5662 54.7331V60.94V65.8046C22.86 66.4098 19.3593 68.4457 19.3593 73.3538C19.3593 78.2619 22.86 80.2978 25.5662 80.9029V85.7676C25.5662 93.9715 30.496 101.033 37.5424 104.183L32.6824 109.043H20.911ZM34.8765 113.106L42.2689 116.802L34.8765 120.498V113.106ZM20.5836 125.091L17.2738 118.472C16.6127 117.153 16.6438 115.584 17.3529 114.273C17.9922 113.089 19.0893 112.327 20.3725 112.178C20.551 112.156 20.7294 112.147 20.911 112.147H31.7731V123.009C31.7731 123.547 32.0524 124.046 32.5101 124.329C32.7584 124.483 33.0408 124.561 33.3248 124.561C33.5622 124.561 33.7996 124.506 34.0184 124.398L44.1869 119.313V127.664H24.7469C22.9732 127.664 21.3781 126.677 20.5836 125.091ZM71.1124 112.179C72.3879 112.328 73.485 113.09 74.1243 114.274C74.8334 115.586 74.8644 117.154 74.2034 118.473L70.8936 125.093C70.0991 126.677 68.5039 127.664 66.7303 127.664H47.2903V119.313L57.4588 124.396C57.6775 124.506 57.915 124.561 58.1524 124.561C58.4363 124.561 58.7188 124.483 58.967 124.329C59.4248 124.046 59.7041 123.547 59.7041 123.009V112.147H70.5662C70.7477 112.147 70.9262 112.156 71.1124 112.179ZM49.2082 116.802L56.6007 113.106V120.498L49.2082 116.802ZM69.0144 73.3538C69.0144 76.0895 67.2858 77.2191 65.911 77.6862V69.0059C67.2858 69.4621 69.0144 70.5855 69.0144 73.3538ZM47.2903 48.551C47.2981 48.0715 47.492 43.871 51.9455 43.871H58.1431C58.922 43.8803 62.8075 44.1457 62.8075 48.5262V57.1941L59.2494 53.636C58.8025 53.1891 58.1275 53.0572 57.5472 53.304C56.9653 53.5507 56.5913 54.1248 56.6007 54.7579C56.6007 54.7796 56.596 56.876 55.2786 58.2152C54.4996 59.0034 53.4103 59.3883 51.9455 59.3883C47.6332 59.3883 47.312 55.4826 47.2903 54.7331V48.551ZM28.6696 54.7331C28.6696 52.1665 30.7582 50.0779 33.3248 50.0779H39.5317C40.981 50.0779 42.1029 50.4705 42.8694 51.2433C44.19 52.5746 44.1869 54.6896 44.1869 54.7005C44.1775 55.18 43.9619 59.3883 39.5317 59.3883C35.1512 59.3883 34.892 55.1738 34.8765 54.7005C34.8625 54.0798 34.4808 53.5243 33.9036 53.2931C33.7158 53.2171 33.5203 53.1814 33.3248 53.1814C32.9213 53.1814 32.5241 53.3396 32.2277 53.636L28.6696 57.1941V54.7331ZM22.4627 73.3538C22.4627 70.6181 24.1898 69.4884 25.5662 69.0214V77.7017C24.1913 77.2455 22.4627 76.1221 22.4627 73.3538ZM28.6696 85.7676V79.5607V67.1469V61.5824L32.4217 57.8303C33.3605 60.1626 35.4507 62.4917 39.5317 62.4917C42.6165 62.4917 44.5593 61.1572 45.7308 59.5C46.9008 61.1572 48.8451 62.4917 51.9455 62.4917C54.2513 62.4917 56.1181 61.7857 57.4898 60.3907C58.2594 59.6086 58.7607 58.7117 59.0881 57.8629L62.8075 61.5824V67.1469V79.5607V85.7676C62.8075 95.1788 55.1498 102.837 45.7386 102.837C36.3274 102.837 28.6696 95.1788 28.6696 85.7676ZM45.7386 105.94C47.461 105.94 49.1229 105.699 50.7196 105.291C50.7662 105.355 50.791 105.428 50.8484 105.485L55.5331 110.17L45.7386 115.067L35.9441 110.17L40.6288 105.485C40.6862 105.428 40.711 105.355 40.7575 105.291C42.3543 105.699 44.0162 105.94 45.7386 105.94Z" fill="#1A2856"/>
</g>
<defs>
<clipPath id="clip0">
<rect x="0.739258" y="40.7676" width="90" height="90" fill="white"/>
</clipPath>
</defs>
</svg>
