<svg viewBox="0 0 131 141" fill="none" xmlns="http://www.w3.org/2000/svg" id="icon-phone-ringing">
<path d="M15.0002 34.9706C43.6696 18.4183 80.2082 28.0318 96.6114 56.443C113.015 84.8541 103.071 121.304 74.4014 137.856" stroke="#BCFFF3" stroke-width="6" stroke-dasharray="12 15"/>
<path d="M73.3479 106.779C69.4381 102.869 63.097 102.869 59.1872 106.779C56.5711 109.395 52.5739 110.044 49.2644 108.389C37.982 102.748 28.8343 93.5998 23.1924 82.3174C21.5377 79.0079 22.1867 75.0107 24.8028 72.3946C28.7126 68.4848 28.7126 62.1438 24.8028 58.234L23.287 56.7182C18.539 51.9702 10.8427 51.9702 6.09473 56.7182C4.16347 58.6494 3.26087 61.3773 3.68495 64.075C4.91276 71.8803 9.44149 88.7187 26.1523 105.43C42.8632 122.14 59.7016 126.669 67.5068 127.897C70.2046 128.321 72.9324 127.418 74.8637 125.487C79.6116 120.739 79.6116 113.043 74.8637 108.295L73.3479 106.779Z" fill="#00A5FF"/>
<path d="M2.26919 58.5665C3.61305 67.1081 8.36957 83.9422 25.1392 100.712C41.9088 117.481 58.7428 122.238 67.2845 123.582C67.7917 123.662 68.3017 123.701 68.8089 123.701C71.4293 123.699 73.9895 122.656 75.8763 120.769C81.1744 115.471 81.1744 106.849 75.8763 101.551L74.3605 100.036C69.8977 95.5728 62.6354 95.5728 58.1726 100.036C55.9906 102.218 52.6668 102.758 49.9046 101.378C38.9717 95.9123 29.9387 86.8792 24.473 75.9464C23.0919 73.1827 23.632 69.8603 25.8154 67.6783C30.2782 63.2155 30.2782 55.9532 25.8154 51.4904L24.2996 49.9746C19.003 44.6751 10.3782 44.6751 5.08155 49.9746C2.82937 52.2268 1.77778 55.4375 2.26919 58.5665ZM14.6906 48.8657C17.437 48.8657 20.1835 49.9102 22.2738 52.0005L23.7896 53.5162C27.1349 56.8616 27.1349 62.3072 23.7896 65.6525C20.7337 68.7084 19.9786 73.3604 21.9099 77.2286C27.6521 88.713 37.1393 98.2003 48.6238 103.943C52.4892 105.874 57.1425 105.119 60.1999 102.063C63.5466 98.7161 68.9894 98.7161 72.3362 102.063L73.8519 103.579C78.0325 107.761 78.0325 114.563 73.8519 118.745C72.2459 120.351 69.9694 121.109 67.7315 120.751C59.5337 119.463 43.3629 114.883 27.1678 98.6874C10.9728 82.4923 6.3896 66.3187 5.10161 58.1209C4.75203 55.8945 5.50133 53.6065 7.10737 52.0005C9.19766 49.9102 11.9441 48.8657 14.6906 48.8657Z" fill="#1A2856"/>
<path d="M14.6923 78.2088C14.9029 78.2088 15.1193 78.163 15.3213 78.0612C16.0319 77.7145 16.3242 76.8549 15.976 76.1443C7.91 59.6885 10.0705 54.8245 10.1736 54.6125C10.5777 53.9678 10.4072 53.1124 9.77536 52.674C9.12349 52.2242 8.23236 52.3861 7.78106 53.0365C7.16214 53.9291 4.52743 59.3016 13.4044 77.4065C13.6522 77.9151 14.1622 78.2088 14.6923 78.2088Z" fill="#1A2856"/>
<path d="M43.3441 75.3433C39.3942 75.3433 36.1807 78.5568 36.1807 82.5067C36.1807 86.4566 39.3942 89.6701 43.3441 89.6701C47.294 89.6701 50.5075 86.4566 50.5075 82.5067C50.5075 78.5568 47.294 75.3433 43.3441 75.3433ZM43.3441 86.8048C40.9744 86.8048 39.046 84.8764 39.046 82.5067C39.046 80.137 40.9744 78.2086 43.3441 78.2086C45.7138 78.2086 47.6422 80.137 47.6422 82.5067C47.6422 84.8764 45.7138 86.8048 43.3441 86.8048Z" fill="#1A2856"/>
<path d="M54.8053 83.9392C55.5976 83.9392 56.238 83.2988 56.238 82.5065C56.238 75.3961 50.4542 69.6123 43.3438 69.6123C42.5515 69.6123 41.9111 70.2527 41.9111 71.045C41.9111 71.8373 42.5515 72.4777 43.3438 72.4777C48.8726 72.4777 53.3726 76.9777 53.3726 82.5065C53.3726 83.2988 54.013 83.9392 54.8053 83.9392Z" fill="#1A2856"/>
<path d="M60.5361 83.9395C61.3283 83.9395 61.9687 83.299 61.9687 82.5068C61.9687 72.2373 53.6133 63.8818 43.3438 63.8818C42.5515 63.8818 41.9111 64.5222 41.9111 65.3145C41.9111 66.1068 42.5515 66.7472 43.3438 66.7472C52.0331 66.7472 59.1034 73.8175 59.1034 82.5068C59.1034 83.299 59.7438 83.9395 60.5361 83.9395Z" fill="#1A2856"/>
<path d="M66.2668 83.9392C67.0591 83.9392 67.6995 83.2988 67.6995 82.5066C67.6995 69.0765 56.7738 58.1509 43.3438 58.1509C42.5515 58.1509 41.9111 58.7913 41.9111 59.5836C41.9111 60.3758 42.5515 61.0163 43.3438 61.0163C55.1936 61.0163 64.8341 70.6568 64.8341 82.5066C64.8341 83.2988 65.4745 83.9392 66.2668 83.9392Z" fill="#1A2856"/>
<path d="M71.9976 83.939C72.7898 83.939 73.4302 83.2986 73.4302 82.5063C73.4302 65.9173 59.9329 52.4199 43.3438 52.4199C42.5515 52.4199 41.9111 53.0603 41.9111 53.8526C41.9111 54.6449 42.5515 55.2853 43.3438 55.2853C58.3541 55.2853 70.5649 67.4961 70.5649 82.5063C70.5649 83.2986 71.2053 83.939 71.9976 83.939Z" fill="#1A2856"/>
</svg>
