<svg viewBox="0 0 143 141" fill="none" xmlns="http://www.w3.org/2000/svg" id="icon-people">
<path d="M26.5346 116.33L36.7717 127.239C37.0665 127.55 37.3777 127.861 37.6889 128.14C43.2743 133.152 51.7587 133.168 57.3277 128.14C57.6389 127.861 57.9337 127.566 58.2286 127.255L68.4656 116.33C71.7579 113.84 73.707 109.942 73.707 105.815V105.765C73.707 102.129 70.7751 99.1466 67.1553 99.1466H63.3225C61.5863 99.1466 59.9156 98.4931 58.6872 97.2646L54.0518 92.6293L53.2329 91.7939C51.4312 92.3508 49.4984 92.6457 47.5001 92.6457C45.5018 92.6457 43.5855 92.3508 41.7837 91.7939L40.9484 92.6457L37.6725 95.9215L36.313 97.263C35.0846 98.4931 33.4139 99.1466 31.6777 99.1466H27.8449C24.2251 99.1466 21.2932 102.129 21.2932 105.765V105.782C21.2932 109.926 23.2424 113.84 26.5346 116.33Z" fill="#00A5FF"/>
<path d="M5.78517 111.024L15.9305 121.824C19.172 125.275 23.5109 127.028 27.8661 127.028C31.314 127.028 34.7667 125.921 37.697 123.703C40.5077 125.827 43.8998 126.988 47.5033 126.988C51.11 126.988 54.5022 125.826 57.3128 123.698C60.2447 125.921 63.7008 127.029 67.1503 127.029C71.5039 127.029 75.8444 125.278 79.0859 121.826L89.2214 111.025C92.8445 108.244 95 103.869 95 99.2288C95 94.6688 91.3294 90.9573 86.8153 90.9573H82.9759C81.623 90.9573 80.388 90.4659 79.497 89.5716L75.8313 85.9223C83.2577 82.5924 88.4532 75.1447 88.4532 66.4948C88.4532 54.7541 78.8975 45.2017 67.1519 45.2017C63.7663 45.2017 60.4413 46.0436 57.4472 47.5767C54.7069 46.1222 51.6112 45.2656 48.3304 45.1378C48.2256 45.1329 48.1208 45.1247 48.0143 45.1214C47.8423 45.1165 47.6736 45.0952 47.5 45.0952C47.1626 45.0952 46.835 45.1296 46.5025 45.146C46.3043 45.1542 46.1061 45.1624 45.9079 45.1755C45.4559 45.2099 45.0103 45.2606 44.5648 45.3212C44.3142 45.3556 44.0636 45.3933 43.8147 45.4359C43.4232 45.5047 43.0366 45.5833 42.6534 45.6734C42.3389 45.7455 42.026 45.829 41.7148 45.9158C41.4036 46.0043 41.0957 46.0944 40.791 46.1959C40.3979 46.3253 40.0081 46.4711 39.6216 46.625C39.4086 46.7102 39.194 46.7937 38.9844 46.8871C38.5159 47.0902 38.0557 47.3162 37.6003 47.5554C37.5872 47.5619 37.5741 47.5669 37.561 47.575C34.5718 46.0436 31.2501 45.2033 27.8678 45.2033C16.1205 45.2033 6.56483 54.7557 6.56483 66.4964C6.56483 75.1463 11.7603 82.594 19.1884 85.9239L15.5178 89.5765C14.6284 90.4675 13.395 90.9573 12.0421 90.9573H8.20112C3.67879 90.9573 0 94.6688 0 99.2911C0 103.866 2.16043 108.241 5.78517 111.024ZM37.9607 119.572L27.7302 108.652C27.6663 108.583 27.5959 108.521 27.5205 108.463C24.6476 106.298 22.931 102.849 22.931 99.2141C22.931 96.4673 25.1357 94.2331 27.8448 94.2331H31.6825C33.8986 94.2331 35.9559 93.3912 37.4726 91.8712L37.6659 91.6796L45.5066 99.5073L39.484 111.536C39.1695 112.167 39.2923 112.93 39.7919 113.428L46.3436 119.972C46.663 120.289 47.0823 120.45 47.5016 120.45C47.9209 120.45 48.3403 120.289 48.6597 119.972L55.2114 113.428C55.7109 112.928 55.8338 112.165 55.5193 111.536L49.4966 99.5073L57.344 91.6845L57.5258 91.8663C59.0441 93.3912 61.103 94.2331 63.3175 94.2331H67.1552C69.8643 94.2331 72.069 96.4673 72.069 99.2534C72.069 102.86 70.3524 106.308 67.4795 108.472C67.4041 108.527 67.3337 108.591 67.2698 108.66L57.0393 119.574C54.5382 122.242 51.1509 123.709 47.5033 123.709C43.8523 123.711 40.4634 122.242 37.9607 119.572ZM40.7747 49.688C41.135 49.5422 41.5003 49.4079 41.8721 49.285C42.103 49.2097 42.334 49.1409 42.5682 49.0754C42.8368 48.9984 43.1087 48.9296 43.3822 48.8657C43.6853 48.7953 43.9866 48.7281 44.2929 48.6741C44.4895 48.6381 44.6909 48.6119 44.8908 48.5824C45.2577 48.53 45.6246 48.4775 45.9947 48.4464C46.0603 48.4415 46.1258 48.4415 46.1913 48.4366C48.1683 48.2974 50.1616 48.4775 52.0878 48.9837C52.0977 48.9869 52.1091 48.9886 52.119 48.9919C52.5989 49.1196 53.0739 49.267 53.544 49.4341C53.5734 49.4439 53.6013 49.4554 53.6308 49.4652C54.0878 49.6306 54.5398 49.8141 54.9853 50.0172C55.023 50.0352 55.0607 50.0532 55.0984 50.0712C55.5373 50.276 55.9697 50.4955 56.394 50.7362C56.4234 50.7526 56.4513 50.7723 56.4808 50.7887C57.3653 51.2981 58.217 51.8844 59.0212 52.5527L55.6897 55.8826V53.2849C55.6897 52.6231 55.2916 52.0253 54.6791 51.7714C54.4759 51.6879 54.263 51.6469 54.0517 51.6469C53.6259 51.6469 53.2066 51.814 52.8937 52.1269L49.1379 55.8826V53.2849C49.1379 52.6231 48.7399 52.0253 48.1273 51.7714C47.5164 51.5192 46.8104 51.6568 46.342 52.1269L42.5862 55.8826V53.2849C42.5862 52.6231 42.1882 52.0253 41.5756 51.7714C40.9647 51.5192 40.2603 51.6568 39.7903 52.1269L36.0345 55.8826V52.5069C37.3432 51.4225 38.8091 50.525 40.3881 49.8419C40.5159 49.7879 40.6453 49.7387 40.7747 49.688ZM32.7586 56.0726V59.8366C32.7586 60.4983 33.1566 61.0962 33.7692 61.35C34.3818 61.6023 35.0861 61.4647 35.5546 60.9946L39.3103 57.2388V59.8366C39.3103 60.4983 39.7084 61.0962 40.3209 61.35C40.9352 61.6023 41.6378 61.4647 42.1063 60.9946L45.8621 57.2388V59.8366C45.8621 60.4983 46.2601 61.0962 46.8727 61.35C47.4869 61.6023 48.1896 61.4647 48.658 60.9946L52.4138 57.2388V59.8366C52.4138 60.4983 52.8118 61.0962 53.4244 61.35C53.6275 61.4336 53.8404 61.4745 54.0517 61.4745C54.4776 61.4745 54.8969 61.3075 55.2097 60.9946L61.3323 54.872C63.9416 58.0021 65.5172 62.0265 65.5172 66.4162C65.5172 76.3666 57.4341 84.4613 47.5 84.4613C37.5659 84.4613 29.4828 76.3666 29.4828 66.4162C29.4828 62.567 30.7014 59.0045 32.7586 56.0726ZM42.2422 87.0508C43.9277 87.4816 45.6819 87.7355 47.5 87.7355C49.3214 87.7355 51.0805 87.48 52.7692 87.0475C52.8151 87.1081 52.838 87.1802 52.8937 87.2343L54.3105 88.6511L47.5 90.9147L40.7042 88.6527L42.1047 87.2572C42.1653 87.1966 42.1931 87.118 42.2422 87.0508ZM47.5 102.84L52.0584 111.946L47.5 116.498L42.9416 111.946L47.5 102.84ZM47.5016 96.8686L43.7426 93.1161L46.9841 94.1938C47.3198 94.3052 47.6818 94.3052 48.0176 94.1938L51.2672 93.1144L47.5016 96.8686ZM72.5505 87.2801L77.1809 91.8893C78.6878 93.4011 80.7467 94.2331 82.9759 94.2331H86.8153C89.5211 94.2331 91.7241 96.4738 91.7241 99.2911C91.7241 102.895 90.0092 106.334 87.1379 108.495C87.0626 108.55 86.9921 108.613 86.9266 108.681L76.6961 119.58C72.1935 124.376 65.0488 125.056 59.7828 121.436L69.5662 111.001C73.1877 108.216 75.3448 103.835 75.3448 99.2141C75.3448 94.6623 71.6709 90.9573 67.1552 90.9573H63.3175C61.9793 90.9573 60.7459 90.4577 59.8418 89.5519L56.163 85.8731C56.543 85.7028 56.9181 85.5226 57.2866 85.331C60.3217 86.9198 63.7024 87.7912 67.1519 87.7912C68.9766 87.7912 70.739 87.5356 72.4309 87.1016C72.4752 87.1589 72.4981 87.2277 72.5505 87.2801ZM67.1519 48.4792C77.0909 48.4792 85.1773 56.5624 85.1773 66.4964C85.1773 76.4305 77.0909 84.5137 67.1519 84.5137C64.8735 84.5137 62.6279 84.0681 60.5297 83.241C65.5467 79.3378 68.7931 73.2562 68.7931 66.4162C68.7931 59.64 65.609 53.6059 60.6739 49.6978C62.7311 48.9067 64.9276 48.4792 67.1519 48.4792ZM9.83905 66.4964C9.83905 56.5624 17.9272 48.4792 27.8661 48.4792C30.0822 48.4792 32.2672 48.905 34.3163 49.6896C34.2213 49.765 34.1263 49.8419 34.0329 49.9189C33.9969 49.9484 33.9609 49.9762 33.9248 50.0057C33.7283 50.1695 33.5219 50.3153 33.3303 50.4856C33.3041 50.5086 33.2811 50.5299 33.2566 50.5544C33.2369 50.5708 33.2189 50.5872 33.1992 50.6019L33.2025 50.6052C33.1419 50.6658 33.1157 50.7248 33.0682 50.7854C28.8603 54.6837 26.2069 60.2379 26.2069 66.4162C26.2069 73.2578 29.4566 79.3411 34.4752 83.2459C32.3803 84.0698 30.1379 84.5153 27.8645 84.5153C17.9255 84.5137 9.83905 76.4305 9.83905 66.4964ZM8.20112 94.2331H12.0421C14.2729 94.2331 16.3302 93.4011 17.8305 91.8942L22.4659 87.2801C22.5183 87.2277 22.5412 87.1589 22.5854 87.1C24.2774 87.534 26.0398 87.7895 27.8661 87.7895C31.3107 87.7895 34.6897 86.9198 37.7215 85.3326C38.0901 85.5243 38.4652 85.7061 38.8468 85.8764L35.1566 89.5519C34.2541 90.4577 33.0207 90.9573 31.6825 90.9573H27.8448C23.3291 90.9573 19.6552 94.6623 19.6552 99.2354C19.6552 103.823 21.8123 108.208 25.4322 110.992L35.2253 121.444C29.9594 125.057 22.8213 124.378 18.3186 119.582L8.07828 108.683C8.0144 108.614 7.94396 108.552 7.86862 108.496C4.99405 106.331 3.27586 102.89 3.27586 99.2288C3.27586 96.4738 5.48543 94.2331 8.20112 94.2331Z" fill="#1A2856"/>
<path d="M13.5833 106.857C13.9027 107.176 14.322 107.337 14.7413 107.337C15.1606 107.337 15.58 107.176 15.8994 106.857C16.5398 106.216 16.5398 105.181 15.8994 104.541L9.34763 97.9891C8.7072 97.3487 7.67202 97.3487 7.03159 97.9891C6.39116 98.6295 6.39116 99.6647 7.03159 100.305L13.5833 106.857Z" fill="#1A2856"/>
<path d="M80.2585 107.337C80.6778 107.337 81.0971 107.176 81.4165 106.857L87.9682 100.305C88.6086 99.6647 88.6086 98.6295 87.9682 97.9891C87.3278 97.3487 86.2926 97.3487 85.6522 97.9891L79.1004 104.541C78.46 105.181 78.46 106.216 79.1004 106.857C79.4198 107.176 79.8391 107.337 80.2585 107.337Z" fill="#1A2856"/>
<path d="M27.0002 34.9706C55.6696 18.4183 92.2082 28.0318 108.611 56.443C125.015 84.8541 115.071 121.304 86.4014 137.856" stroke="#BCFFF3" stroke-width="6" stroke-dasharray="12 15"/>
</svg>
