<svg width="80" height="124" viewBox="0 0 80 124" fill="none" xmlns="http://www.w3.org/2000/svg">
<path d="M1.99993 24.8086C20.9483 13.8687 45.0976 20.2225 55.939 39.0002C66.7803 57.7779 60.2082 81.8687 41.2598 92.8086" stroke="#BCFFF3" stroke-width="6" stroke-dasharray="12 15"/>
<path d="M18.1027 102.002C17.6739 103.602 18.6236 105.247 20.224 105.676L46.304 112.664C47.9044 113.093 49.5494 112.143 49.9782 110.543C50.4071 108.942 49.4573 107.297 47.8569 106.869L24.6747 100.657L30.8864 77.4746C31.3152 75.8742 30.3654 74.2292 28.765 73.8004C27.1646 73.3716 25.5196 74.3213 25.0908 75.9217L18.1027 102.002ZM32.9727 92.4019L19.5005 100.18L22.5005 105.376L35.9727 97.5981L32.9727 92.4019Z" fill="#BCFFF3"/>
</svg>
