<svg viewBox="0 0 137 141" fill="none" xmlns="http://www.w3.org/2000/svg" id="icon-letters">
<path d="M21.0002 34.9706C49.6696 18.4183 86.2082 28.0318 102.611 56.443C119.015 84.8541 109.071 121.304 80.4014 137.856" stroke="#BCFFF3" stroke-width="6" stroke-dasharray="12 15"/>
<path d="M79.5 62.5H31.5C28.1865 62.5 25.5 65.1865 25.5 68.5V74.5H55.5C58.8135 74.5 61.5 77.1865 61.5 80.5V110.5H79.5C82.8135 110.5 85.5 107.814 85.5 104.5V68.5C85.5 65.1865 82.8135 62.5 79.5 62.5Z" fill="#00A5FF"/>
<path d="M84.8025 57.1975C84.795 57.19 84.786 57.1885 84.78 57.1825C83.424 55.8355 81.558 55 79.5 55H31.5C29.442 55 27.576 55.8355 26.22 57.1825C26.2125 57.1885 26.2035 57.1915 26.1975 57.1975C26.1915 57.2035 26.1885 57.214 26.1825 57.22C24.8355 58.576 24 60.442 24 62.5V67H7.5C7.1175 67 6.7485 67.045 6.387 67.1125C4.9635 67.327 3.6825 67.939 2.637 68.8375C2.4615 68.971 2.325 69.0805 2.2785 69.121C2.2665 69.1315 2.262 69.1465 2.2515 69.157C0.864 70.519 0 72.409 0 74.5V110.5C0 114.635 3.3645 118 7.5 118H55.5C57.558 118 59.424 117.164 60.78 115.817C60.7875 115.811 60.7965 115.808 60.8025 115.802C60.8085 115.796 60.8115 115.786 60.8175 115.78C62.1645 114.424 63 112.558 63 110.5V106H79.5C81.558 106 83.424 105.164 84.78 103.817C84.7875 103.811 84.7965 103.808 84.8025 103.802C84.8085 103.796 84.8115 103.786 84.8175 103.78C86.1645 102.424 87 100.558 87 98.5V62.5C87 60.442 86.1645 58.576 84.8175 57.22C84.8115 57.2125 84.81 57.2035 84.8025 57.1975ZM63.621 80.5L83.5485 60.5725C83.8305 61.159 84 61.807 84 62.5V98.5C84 99.193 83.8305 99.841 83.5485 100.427L63.621 80.5ZM39.621 92.5L59.5485 72.5725C59.8305 73.159 60 73.807 60 74.5V110.5C60 111.193 59.8305 111.841 59.5485 112.427L39.621 92.5ZM79.5 58C80.193 58 80.841 58.1695 81.4275 58.4515L63 76.879V74.5C63 72.3745 62.103 70.4635 60.678 69.097C60.666 69.0865 60.66 69.0715 60.648 69.0625C60.63 69.049 60.5775 69.0115 60.54 68.983C59.43 67.9675 58.02 67.2985 56.4555 67.096C56.1375 67.0375 55.818 67 55.5 67H38.121L29.5725 58.4515C30.159 58.1695 30.807 58 31.5 58H79.5ZM27 62.5C27 61.807 27.1695 61.159 27.4515 60.5725L33.879 67H27V62.5ZM55.5 70C55.6455 70 55.782 70.03 55.923 70.0435C56.364 70.126 56.859 70.3165 57.3315 70.5475L34.6815 93.1975C32.982 94.897 30.018 94.897 28.3185 93.1975L5.6295 70.5085C6.039 70.3075 6.498 70.138 6.957 70.0555C7.137 70.033 7.314 70 7.5 70H55.5ZM3.4515 112.427C3.1695 111.841 3 111.193 3 110.5V74.5C3 73.807 3.1695 73.159 3.4515 72.5725L23.379 92.5L3.4515 112.427ZM7.5 115C6.807 115 6.159 114.83 5.5725 114.548L25.5 94.621L26.1975 95.3185C27.66 96.781 29.58 97.5115 31.5 97.5115C33.42 97.5115 35.3415 96.781 36.8025 95.3185L37.5 94.621L57.4275 114.548C56.841 114.83 56.193 115 55.5 115H7.5ZM63 103V84.121L81.4275 102.549C80.841 102.83 80.193 103 79.5 103H63Z" fill="#1A2856"/>
</svg>
