<svg viewBox="0 0 134 141" fill="none" xmlns="http://www.w3.org/2000/svg" id="icon-squares">
<g clip-path="url(#clip0)">
<path d="M72.1896 79.0519V62.7071C72.1896 59.6983 69.7502 57.2588 66.7413 57.2588H50.3965C47.3877 57.2588 44.9482 59.6983 44.9482 62.7071V79.0519C44.9482 82.0607 47.3877 84.5002 50.3965 84.5002H66.7413C69.7502 84.5002 72.1896 82.0607 72.1896 79.0519Z" fill="#00A5FF"/>
<path d="M28.6034 117.19C31.6122 117.19 34.0517 114.751 34.0517 111.742V100.845C34.0517 97.8364 31.6122 95.397 28.6034 95.397H17.7068C14.698 95.397 12.2585 97.8364 12.2585 100.845V111.742C12.2585 114.751 14.698 117.19 17.7068 117.19H28.6034Z" fill="#00A5FF"/>
<path d="M50.3965 80.4138H66.7414C70.4966 80.4138 73.5517 77.3586 73.5517 73.6034V57.2586C73.5517 53.5034 70.4966 50.4482 66.7414 50.4482H50.3965C46.6413 50.4482 43.5862 53.5034 43.5862 57.2586V73.6034C43.5862 77.3586 46.6413 80.4138 50.3965 80.4138ZM46.3103 57.2586C46.3103 55.0057 48.1437 53.1724 50.3965 53.1724H66.7414C68.9942 53.1724 70.8276 55.0057 70.8276 57.2586V73.6034C70.8276 75.8563 68.9942 77.6896 66.7414 77.6896H50.3965C48.1437 77.6896 46.3103 75.8563 46.3103 73.6034V57.2586Z" fill="#1A2856"/>
<path d="M28.6034 113.104C32.3586 113.104 35.4137 110.049 35.4137 106.293V95.3968C35.4137 91.6415 32.3586 88.5864 28.6034 88.5864H17.7068C13.9516 88.5864 10.8965 91.6415 10.8965 95.3968V106.293C10.8965 110.049 13.9516 113.104 17.7068 113.104H28.6034ZM13.6206 106.293V95.3968C13.6206 93.1439 15.454 91.3106 17.7068 91.3106H28.6034C30.8562 91.3106 32.6896 93.1439 32.6896 95.3968V106.293C32.6896 108.546 30.8562 110.38 28.6034 110.38H17.7068C15.454 110.38 13.6206 108.546 13.6206 106.293Z" fill="#1A2856"/>
<path d="M72.1896 88.5864H50.3965C46.6413 88.5864 43.5862 91.6415 43.5862 95.3968V117.19C43.5862 120.945 46.6413 124 50.3965 124H72.1896C75.9449 124 79 120.945 79 117.19V95.3968C79 91.6415 75.9449 88.5864 72.1896 88.5864ZM76.2758 117.19C76.2758 119.443 74.4425 121.276 72.1896 121.276H50.3965C48.1437 121.276 46.3103 119.443 46.3103 117.19V95.3968C46.3103 93.1439 48.1437 91.3106 50.3965 91.3106H72.1896C74.4425 91.3106 76.2758 93.1439 76.2758 95.3968V117.19Z" fill="#1A2856"/>
<path d="M6.81035 80.4138H28.6034C32.3587 80.4138 35.4138 77.3587 35.4138 73.6034V51.8103C35.4138 48.0551 32.3587 45 28.6034 45H6.81035C3.05512 45 0 48.0551 0 51.8103V73.6034C0 77.3587 3.05512 80.4138 6.81035 80.4138ZM2.72414 51.8103C2.72414 49.5575 4.55748 47.7241 6.81035 47.7241H28.6034C30.8563 47.7241 32.6897 49.5575 32.6897 51.8103V73.6034C32.6897 75.8563 30.8563 77.6897 28.6034 77.6897H6.81035C4.55748 77.6897 2.72414 75.8563 2.72414 73.6034V51.8103Z" fill="#1A2856"/>
<path d="M12.2586 74.9654C13.0118 74.9654 13.6207 74.3566 13.6207 73.6033C13.6207 72.8501 13.0118 72.2413 12.2586 72.2413C8.45433 72.2413 8.19009 68.5283 8.17238 68.1551V62.7068C8.17238 61.9536 7.56354 61.3447 6.81031 61.3447C6.05709 61.3447 5.44824 61.9536 5.44824 62.7068V68.1973C5.44824 70.5387 7.03778 74.9654 12.2586 74.9654Z" fill="#1A2856"/>
<path d="M55.8447 58.6206H61.244C61.6662 58.6206 65.3792 58.9039 65.3792 62.7068C65.3792 63.4601 65.9881 64.0689 66.7413 64.0689C67.4945 64.0689 68.1034 63.4601 68.1034 62.7068C68.1034 57.4874 63.6766 55.97 61.293 55.8965H55.8447C55.0915 55.8965 54.4827 56.5053 54.4827 57.2586C54.4827 58.0118 55.0915 58.6206 55.8447 58.6206Z" fill="#1A2856"/>
<path d="M72.1898 104.931C71.4365 104.931 70.8277 105.54 70.8277 106.293V111.741C70.8277 113.037 70.479 114.035 69.7925 114.709C68.6307 115.85 66.8014 115.822 66.7415 115.828H61.2932C60.54 115.828 59.9312 116.437 59.9312 117.19C59.9312 117.943 60.54 118.552 61.2932 118.552H66.6993C66.7088 118.552 66.7374 118.552 66.7824 118.552C67.2836 118.552 69.8361 118.462 71.6776 116.678C72.9198 115.471 73.5518 113.81 73.5518 111.741V106.293C73.5518 105.54 72.943 104.931 72.1898 104.931Z" fill="#1A2856"/>
<path d="M55.8448 94.0361C50.4578 94.0361 49.0344 98.4915 49.0344 100.848C49.0344 101.596 49.6392 102.207 50.3883 102.207C50.391 102.207 50.3938 102.207 50.3965 102.207C51.1429 102.207 51.7504 101.601 51.7586 100.855C51.7667 100.171 51.9996 96.7589 55.8448 96.7589C56.598 96.7589 57.2068 96.1501 57.2068 95.3968C57.2068 94.6436 56.598 94.0361 55.8448 94.0361Z" fill="#1A2856"/>
</g>
<path d="M18.0002 34.9706C46.6696 18.4183 83.2082 28.0318 99.6114 56.443C116.015 84.8541 106.071 121.304 77.4014 137.856" stroke="#BCFFF3" stroke-width="6" stroke-dasharray="12 15"/>
<defs>
<clipPath id="clip0">
<rect y="45" width="79" height="79" fill="white"/>
</clipPath>
</defs>
</svg>
