<svg viewBox="0 0 130 141" fill="none" xmlns="http://www.w3.org/2000/svg" id="icon-thumb-down">
<path d="M18.3793 54.8965H1.41382V105.793H18.3793V54.8965Z" fill="#00A5FF"/>
<path d="M74.931 81.7587H74.8943C75.792 80.5739 76.3448 79.1149 76.3448 77.5173C76.3448 73.6195 73.1737 70.4483 69.2759 70.4483H69.273C70.1623 69.2664 70.6897 67.7975 70.6897 66.2069C70.6897 62.3162 67.5284 59.1507 63.6405 59.1394C64.5821 57.8981 65.108 56.4065 65.0924 54.8231C65.0529 50.9663 61.8831 47.8276 58.0235 47.8276H34.3736C30.9748 47.8276 27.7796 49.1509 25.3776 51.5544L19.7931 57.1389V49.2414C19.7931 48.4596 19.1611 47.8276 18.3793 47.8276H1.41379C0.631966 47.8276 0 48.4596 0 49.2414V100.138C0 100.92 0.631966 101.552 1.41379 101.552H18.3793C19.1611 101.552 19.7931 100.92 19.7931 100.138V91.1152L27.3696 94.9027C28.1854 95.3127 28.8598 95.9871 29.2683 96.8014L33.4829 105.23C33.7769 105.817 33.931 106.473 33.931 107.128V117.104C33.931 121.001 37.1022 124.172 41 124.172C44.8978 124.172 48.069 121.001 48.069 117.104V100.138C48.069 97.7996 49.9719 95.8966 52.3103 95.8966H74.931C78.8289 95.8966 82 92.7255 82 88.8276C82 84.9298 78.8289 81.7587 74.931 81.7587ZM16.9655 98.7242H2.82759V50.6552H16.9655V98.7242ZM74.931 93.069H52.3103C48.4125 93.069 45.2414 96.2402 45.2414 100.138V117.104C45.2414 119.442 43.3384 121.345 41 121.345C38.6616 121.345 36.7586 119.442 36.7586 117.104V107.128C36.7586 106.038 36.4999 104.943 36.0135 103.967L31.7976 95.5347C31.119 94.1774 29.9964 93.0549 28.6378 92.3748L19.7931 87.9539V61.1371L27.3767 53.5535C29.2471 51.6845 31.7312 50.6552 34.3736 50.6552H58.0235C60.3393 50.6552 62.2408 52.5384 62.2649 54.8528C62.2776 55.9937 61.8407 57.0682 61.0391 57.8811C60.2347 58.6912 59.1658 59.138 57.9655 59.138C57.1837 59.138 56.5517 59.7699 56.5517 60.5518C56.5517 61.3336 57.1837 61.9656 57.9655 61.9656H63.6207C65.9591 61.9656 67.8621 63.8685 67.8621 66.2069C67.8621 68.5454 65.9591 70.4483 63.6207 70.4483C62.8389 70.4483 62.2069 71.0803 62.2069 71.8621C62.2069 72.6439 62.8389 73.2759 63.6207 73.2759H69.2759C71.6143 73.2759 73.5172 75.1789 73.5172 77.5173C73.5172 79.8557 71.6143 81.7587 69.2759 81.7587C68.494 81.7587 67.8621 82.3906 67.8621 83.1725C67.8621 83.9543 68.494 84.5863 69.2759 84.5863H74.931C77.2694 84.5863 79.1724 86.4892 79.1724 88.8276C79.1724 91.1661 77.2694 93.069 74.931 93.069Z" fill="#1A2856"/>
<path d="M12.7242 54.8965H7.06907C6.28724 54.8965 5.65527 55.5285 5.65527 56.3103C5.65527 57.0921 6.28724 57.7241 7.06907 57.7241H12.7242C13.5061 57.7241 14.138 57.0921 14.138 56.3103C14.138 55.5285 13.5061 54.8965 12.7242 54.8965Z" fill="#1A2856"/>
<path d="M40.9999 53.4829H37.6874C35.7985 53.4829 34.0228 54.2195 32.6882 55.5541L28.69 59.5523C28.1372 60.1051 28.1372 60.9986 28.69 61.5514C28.9657 61.8271 29.3276 61.9657 29.6895 61.9657C30.0515 61.9657 30.4134 61.8271 30.6891 61.5514L34.6873 57.5532C35.4889 56.753 36.5535 56.3105 37.6874 56.3105H40.9999C41.7817 56.3105 42.4137 55.6785 42.4137 54.8967C42.4137 54.1149 41.7817 53.4829 40.9999 53.4829Z" fill="#1A2856"/>
<path d="M14.0002 34.9706C42.6696 18.4183 79.2082 28.0318 95.6114 56.443C112.015 84.8541 102.071 121.304 73.4014 137.856" stroke="#BCFFF3" stroke-width="6" stroke-dasharray="12 15"/>
</svg>
