<svg width="57" height="89" viewBox="0 0 57 89" fill="none" xmlns="http://www.w3.org/2000/svg">
<path d="M21 3C39.2254 3 54 17.3269 54 35C54 52.6731 39.2254 67 21 67" stroke="#BCFFF3" stroke-width="6" stroke-dasharray="12 15"/>
<path d="M0.87868 63.8787C-0.292893 65.0503 -0.292893 66.9497 0.87868 68.1213L19.9706 87.2132C21.1421 88.3848 23.0416 88.3848 24.2132 87.2132C25.3848 86.0416 25.3848 84.1421 24.2132 82.9706L7.24264 66L24.2132 49.0294C25.3848 47.8579 25.3848 45.9584 24.2132 44.7868C23.0416 43.6152 21.1421 43.6152 19.9706 44.7868L0.87868 63.8787ZM16 63L3 63L3 69L16 69L16 63Z" fill="#BCFFF3"/>
</svg>
