<svg viewBox="0 0 144 141" fill="none" xmlns="http://www.w3.org/2000/svg" id="icon-man-w-glasses">
<path d="M27.7395 34.7382C56.4089 18.1859 92.9474 27.7994 109.351 56.2105C125.754 84.6217 115.81 121.072 87.1406 137.624" stroke="#BCFFF3" stroke-width="6" stroke-dasharray="12 15"/>
<g clip-path="url(#clip0)">
<path d="M29.0574 96.0553C35.0154 96.0553 39.8453 91.2254 39.8453 85.2674C39.8453 79.3094 35.0154 74.4795 29.0574 74.4795C23.0994 74.4795 18.2695 79.3094 18.2695 85.2674C18.2695 91.2254 23.0994 96.0553 29.0574 96.0553Z" fill="#00A5FF"/>
<path d="M61.4209 96.0553C67.3789 96.0553 72.2088 91.2254 72.2088 85.2674C72.2088 79.3094 67.3789 74.4795 61.4209 74.4795C55.463 74.4795 50.6331 79.3094 50.6331 85.2674C50.6331 91.2254 55.463 96.0553 61.4209 96.0553Z" fill="#00A5FF"/>
<path d="M84.2833 73.2522C83.6347 58.2098 71.2273 46.1611 56.0271 46.1611H34.4514C19.2486 46.1611 6.8398 58.2139 6.19523 73.2603C3.09102 73.8644 0.739258 76.5964 0.739258 79.8733V96.0551C0.739258 99.7728 3.76391 102.797 7.48168 102.797H12.8756C13.6213 102.797 14.2241 102.195 14.2241 101.449V98.4729C19.3713 110.518 31.335 118.979 45.2393 118.979C46.732 118.979 48.2005 118.871 49.6421 118.683C49.4169 119.187 49.2847 119.741 49.2847 120.328C49.2847 122.558 51.0998 124.373 53.3302 124.373H61.4211H64.118H72.209C78.9015 124.373 84.3453 118.929 84.3453 112.248L84.4195 102.663C87.4509 102.04 89.7393 99.3508 89.7393 96.1387V79.7896C89.7393 76.5304 87.3808 73.8226 84.2833 73.2522ZM81.5796 73.1308H77.6029C77.2954 73.1308 77.0257 73.2522 76.7992 73.4248C73.0814 63.5498 64.8557 55.8716 54.6422 52.8995C55.93 51.938 56.8753 50.5437 57.2219 48.9188C70.3427 49.5283 80.8932 60.0303 81.5796 73.1308ZM39.8453 51.5551C38.0896 51.5551 36.6063 50.4237 36.048 48.8581H54.4292C53.8723 50.4237 52.3889 51.5551 50.6332 51.5551H39.8453ZM33.2566 48.9188C33.6045 50.5437 34.5485 51.938 35.8363 52.8995C25.6229 55.8716 17.3971 63.5498 13.6793 73.4248C13.4528 73.2522 13.1831 73.1308 12.8756 73.1308H8.89894C9.58532 60.0303 20.1359 49.5283 33.2566 48.9188ZM11.5271 100.101H7.48168C5.25129 100.101 3.43623 98.2855 3.43623 96.0551V79.8733C3.43623 77.6429 5.25129 75.8278 7.48168 75.8278H11.5271V100.101ZM14.2241 85.2672C14.2241 68.1644 28.1364 54.252 45.2393 54.252C62.3421 54.252 76.2544 68.1644 76.2544 85.2672C76.2544 102.37 62.3421 116.282 45.2393 116.282C28.1364 116.282 14.2241 102.37 14.2241 85.2672ZM61.4211 121.676H53.3302C52.5858 121.676 51.9817 121.072 51.9817 120.328C51.9817 119.583 52.5858 118.979 53.3302 118.979H64.118C64.8624 118.979 65.4665 119.583 65.4665 120.328C65.4665 121.072 64.8624 121.676 64.118 121.676H61.4211ZM72.209 121.676H67.9154C68.0664 121.253 68.1635 120.802 68.1635 120.328C68.1635 118.097 66.3484 116.282 64.118 116.282H58.445C66.4307 112.869 72.8414 106.459 76.2544 98.4729V101.449C76.2544 102.195 76.8572 102.797 77.6029 102.797H81.7212L81.6484 112.237C81.6484 117.441 77.4128 121.676 72.209 121.676ZM87.0423 96.1387C87.0423 98.3232 85.265 100.101 83.0804 100.101H78.9514V75.8278H83.0804C85.265 75.8278 87.0423 77.6051 87.0423 79.7896V96.1387Z" fill="#1A2856"/>
<path d="M7.48179 83.9189C6.73607 83.9189 6.1333 84.5217 6.1333 85.2674V96.0553C6.1333 96.801 6.73607 97.4038 7.48179 97.4038C8.2275 97.4038 8.83027 96.801 8.83027 96.0553V85.2674C8.83027 84.5217 8.2275 83.9189 7.48179 83.9189Z" fill="#1A2856"/>
<path d="M82.9969 83.9189C82.2512 83.9189 81.6484 84.5217 81.6484 85.2674V96.0553C81.6484 96.801 82.2512 97.4038 82.9969 97.4038C83.7426 97.4038 84.3454 96.801 84.3454 96.0553V85.2674C84.3454 84.5217 83.7426 83.9189 82.9969 83.9189Z" fill="#1A2856"/>
<path d="M73.5575 79.8737C73.5575 73.1811 68.1137 67.7373 61.4211 67.7373C54.7286 67.7373 49.2848 73.1811 49.2848 79.8737H41.1939C41.1939 73.1811 35.75 67.7373 29.0575 67.7373C22.365 67.7373 16.9211 73.1811 16.9211 79.8737C16.9211 86.5662 22.365 92.01 29.0575 92.01C34.8223 92.01 39.6499 87.9673 40.881 82.5706H49.5976C50.8288 87.9673 55.6577 92.01 61.4211 92.01C68.1137 92.01 73.5575 86.5662 73.5575 79.8737ZM29.0575 89.3131C23.8537 89.3131 19.6181 85.0775 19.6181 79.8737C19.6181 74.6699 23.8537 70.4343 29.0575 70.4343C34.2613 70.4343 38.4969 74.6699 38.4969 79.8737C38.4969 85.0775 34.2613 89.3131 29.0575 89.3131ZM61.4211 89.3131C56.2173 89.3131 51.9818 85.0775 51.9818 79.8737C51.9818 74.6699 56.2173 70.4343 61.4211 70.4343C66.6249 70.4343 70.8605 74.6699 70.8605 79.8737C70.8605 85.0775 66.6249 89.3131 61.4211 89.3131Z" fill="#1A2856"/>
<path d="M23.6635 81.2221C24.0087 81.2221 24.3539 81.0899 24.6169 80.827L30.0108 75.4331C30.5381 74.9058 30.5381 74.0536 30.0108 73.5263C29.4836 72.999 28.6313 72.999 28.1041 73.5263L22.7101 78.9202C22.1829 79.4475 22.1829 80.2997 22.7101 80.827C22.9731 81.0899 23.3183 81.2221 23.6635 81.2221Z" fill="#1A2856"/>
<path d="M56.0272 81.2218C56.3562 81.2218 56.6866 81.1018 56.9468 80.8591C57.8004 80.0621 62.1951 75.6148 62.3812 75.4274C62.9044 74.8961 62.899 74.0438 62.3691 73.5193C61.8378 72.996 60.9869 73.0028 60.461 73.5314C60.4165 73.5772 55.9206 78.1284 55.1075 78.8876C54.5627 79.396 54.5317 80.2495 55.0401 80.793C55.3071 81.0789 55.6658 81.2218 56.0272 81.2218Z" fill="#1A2856"/>
<path d="M35.4048 73.5263C34.8775 72.999 34.0253 72.999 33.498 73.5263L22.7101 84.3142C22.1829 84.8414 22.1829 85.6937 22.7101 86.2209C22.9731 86.4839 23.3183 86.616 23.6635 86.616C24.0087 86.616 24.3539 86.4839 24.6169 86.2209L35.4048 75.4331C35.932 74.9058 35.932 74.0536 35.4048 73.5263Z" fill="#1A2856"/>
<path d="M67.7683 73.5263C67.241 72.999 66.3888 72.999 65.8615 73.5263L55.0737 84.3142C54.5464 84.8414 54.5464 85.6937 55.0737 86.2209C55.3366 86.4839 55.6818 86.616 56.027 86.616C56.3723 86.616 56.7175 86.4839 56.9804 86.2209L67.7683 75.4331C68.2955 74.9058 68.2955 74.0536 67.7683 73.5263Z" fill="#1A2856"/>
</g>
<defs>
<clipPath id="clip0">
<rect x="0.739258" y="40.7676" width="89" height="89" fill="white"/>
</clipPath>
</defs>
</svg>
