<svg viewBox="0 0 136 141" fill="none" xmlns="http://www.w3.org/2000/svg" id="icon-rocket">
<path d="M19.7395 34.7382C48.4089 18.1859 84.9474 27.7994 101.351 56.2105C117.754 84.6217 107.81 121.072 79.1406 137.624" stroke="#BCFFF3" stroke-width="6" stroke-dasharray="12 15"/>
<g clip-path="url(#clip0)">
<path d="M16.8232 101.086C15.7921 102.632 15.5889 104.586 16.2787 106.311L26.4619 131.768V120.483L32.1044 114.841L27.2293 85.5889L16.8232 101.086Z" fill="#00A5FF"/>
<path d="M59.7283 85.5889L54.6741 114.841L60.3165 120.483V131.768L70.4997 106.312C71.1895 104.587 70.9864 102.633 69.9552 101.087L59.7283 85.5889Z" fill="#00A5FF"/>
<path d="M61.0684 79.4142L61.7088 75.5745C61.7638 75.2444 61.699 74.9044 61.5269 74.6167L44.5995 46.4045C44.0903 45.5553 42.6896 45.5553 42.1803 46.4045L25.253 74.6167C25.0809 74.9044 25.016 75.243 25.071 75.5745L25.7467 79.6258L15.651 94.66C14.3631 96.594 14.1078 99.0372 14.9711 101.193L25.1543 126.648C25.3701 127.193 25.8948 127.536 26.4605 127.536C26.5493 127.536 26.6396 127.527 26.7285 127.51C27.3929 127.383 27.8725 126.801 27.8725 126.125V115.424L32.3822 110.915L42.7573 116.103C42.9562 116.201 43.1734 116.251 43.3892 116.251C43.605 116.251 43.8223 116.201 44.0198 116.103L54.3948 110.915L58.9059 115.424V126.125C58.9059 126.801 59.3855 127.383 60.0499 127.51C60.1388 127.527 60.2277 127.536 60.318 127.536C60.8836 127.536 61.4084 127.193 61.627 126.648L71.8102 101.193C72.6721 99.0372 72.4182 96.594 71.1345 94.6657L61.0684 79.4142ZM25.4646 113.843C25.1994 114.107 25.0513 114.465 25.0513 114.84V118.801L17.5891 100.146C17.0715 98.851 17.2238 97.3853 17.994 96.2301L26.421 83.6813L28.0897 93.6952L30.5922 108.715L25.4646 113.843ZM43.3892 113.263L33.3781 108.257L28.6201 79.716L27.9388 75.6253L43.3892 49.8717L58.8396 75.6239L53.4017 108.257L43.3892 113.263ZM69.1893 100.146L61.7272 118.801V114.84C61.7272 114.465 61.579 114.107 61.3139 113.843L56.1877 108.717L60.5112 83.6954L68.7802 96.2258C69.5546 97.3853 69.707 98.851 69.1893 100.146Z" fill="#1A2856"/>
<path d="M43.3892 68.29C39.5002 68.29 36.3362 71.454 36.3362 75.3431C36.3362 79.2321 39.5002 82.3961 43.3892 82.3961C47.2783 82.3961 50.4423 79.2321 50.4423 75.3431C50.4423 71.454 47.2783 68.29 43.3892 68.29ZM43.3892 79.5749C41.0561 79.5749 39.1574 77.6762 39.1574 75.3431C39.1574 73.0099 41.0561 71.1113 43.3892 71.1113C45.7224 71.1113 47.6211 73.0099 47.6211 75.3431C47.6211 77.6762 45.7224 79.5749 43.3892 79.5749Z" fill="#1A2856"/>
<path d="M43.3891 85.2168C42.6091 85.2168 41.9785 85.8473 41.9785 86.6274V103.555C41.9785 104.335 42.6091 104.965 43.3891 104.965C44.1692 104.965 44.7997 104.335 44.7997 103.555V86.6274C44.7997 85.8473 44.1692 85.2168 43.3891 85.2168Z" fill="#1A2856"/>
<path d="M27.7243 108.567L22.0818 97.2825C21.732 96.5857 20.8856 96.3064 20.1888 96.652C19.4919 97.0004 19.2098 97.8482 19.5582 98.545L25.2007 109.83C25.4475 110.324 25.9455 110.609 26.4632 110.609C26.6748 110.609 26.8906 110.561 27.0923 110.46C27.7892 110.111 28.0727 109.264 27.7243 108.567Z" fill="#1A2856"/>
<path d="M66.5896 96.651C65.8927 96.3054 65.0449 96.5847 64.6965 97.2815L59.0541 108.566C58.7057 109.263 58.9878 110.111 59.6846 110.459C59.8878 110.561 60.1036 110.609 60.3152 110.609C60.8329 110.609 61.3308 110.324 61.5791 109.829L67.2215 98.544C67.5699 97.8472 67.2864 97.0008 66.5896 96.651Z" fill="#1A2856"/>
<path d="M37.7468 119.072C36.9667 119.072 36.3362 119.703 36.3362 120.483V126.125C36.3362 126.905 36.9667 127.536 37.7468 127.536C38.5269 127.536 39.1574 126.905 39.1574 126.125V120.483C39.1574 119.703 38.5269 119.072 37.7468 119.072Z" fill="#1A2856"/>
<path d="M54.674 113.43C53.894 113.43 53.2634 114.06 53.2634 114.84V120.483C53.2634 121.263 53.894 121.893 54.674 121.893C55.4541 121.893 56.0846 121.263 56.0846 120.483V114.84C56.0846 114.06 55.4541 113.43 54.674 113.43Z" fill="#1A2856"/>
<path d="M49.0317 119.072C48.2516 119.072 47.6211 119.703 47.6211 120.483V126.125C47.6211 126.905 48.2516 127.536 49.0317 127.536C49.8118 127.536 50.4423 126.905 50.4423 126.125V120.483C50.4423 119.703 49.8118 119.072 49.0317 119.072Z" fill="#1A2856"/>
<path d="M22.2302 58.4154V52.7729C22.2302 51.9928 21.5996 51.3623 20.8195 51.3623C20.0395 51.3623 19.4089 51.9928 19.4089 52.7729V58.4154C19.4089 59.1954 20.0395 59.826 20.8195 59.826C21.5996 59.826 22.2302 59.1954 22.2302 58.4154Z" fill="#1A2856"/>
<path d="M71.6015 73.9326C70.8215 73.9326 70.1909 74.5632 70.1909 75.3432V80.9857C70.1909 81.7657 70.8215 82.3963 71.6015 82.3963C72.3816 82.3963 73.0121 81.7657 73.0121 80.9857V75.3432C73.0121 74.5632 72.3816 73.9326 71.6015 73.9326Z" fill="#1A2856"/>
</g>
<defs>
<clipPath id="clip0">
<rect x="0.739258" y="45.7676" width="86" height="86" fill="white"/>
</clipPath>
</defs>
</svg>
